<svg width="274" height="274" viewBox="0 0 274 274" fill="none" xmlns="http://www.w3.org/2000/svg">
<path d="M170.94 137L265.94 42C270.449 37.4993 272.985 31.3918 272.99 25.0212C272.996 18.6506 270.471 12.5387 265.97 8.03001C261.469 3.52133 255.362 0.985217 248.991 0.979591C242.621 0.973965 236.509 3.49928 232 8.00001L137 103L42 8.00001C37.4913 3.49133 31.3762 0.958374 25 0.958374C18.6238 0.958374 12.5087 3.49133 8.00001 8.00001C3.49133 12.5087 0.958374 18.6238 0.958374 25C0.958374 31.3762 3.49133 37.4913 8.00001 42L103 137L8.00001 232C3.49133 236.509 0.958374 242.624 0.958374 249C0.958374 255.376 3.49133 261.491 8.00001 266C12.5087 270.509 18.6238 273.042 25 273.042C31.3762 273.042 37.4913 270.509 42 266L137 171L232 266C236.509 270.509 242.624 273.042 249 273.042C255.376 273.042 261.491 270.509 266 266C270.509 261.491 273.042 255.376 273.042 249C273.042 242.624 270.509 236.509 266 232L170.94 137Z" fill="#111111"/>
</svg>
